<svg xmlns="http://www.w3.org/2000/svg" version="1.1" xmlns:xlink="http://www.w3.org/1999/xlink" xmlns:svgjs="http://svgjs.dev/svgjs" width="1500" height="1500" viewBox="0 0 1500 1500"><rect width="1500" height="1500" fill="#ffffff"></rect><g transform="matrix(0.6666666666666666,0,0,0.6666666666666666,249.39393939393943,626.4586831383136)"><svg viewBox="0 0 396 98" data-background-color="#ffffff" preserveAspectRatio="xMidYMid meet" height="371" width="1500" xmlns="http://www.w3.org/2000/svg" xmlns:xlink="http://www.w3.org/1999/xlink"><g id="tight-bounds" transform="matrix(1,0,0,1,0.2400000000000091,-0.04966690386007144)"><svg viewBox="0 0 395.52 98.09933380772016" height="98.09933380772016" width="395.52"><g><svg viewBox="0 0 662.161558018466 164.23343374467427" height="98.09933380772016" width="395.52"><g transform="matrix(1,0,0,1,266.64155801846607,35.07636118504554)"><svg viewBox="0 0 395.52 94.08071137458319" height="94.08071137458319" width="395.52"><g id="textblocktransform"><svg viewBox="0 0 395.52 94.08071137458319" height="94.08071137458319" width="395.52" id="textblock"><g><svg viewBox="0 0 395.52 94.08071137458319" height="94.08071137458319" width="395.52"><g transform="matrix(1,0,0,1,0,0)"><svg width="395.52" viewBox="0.75 -31.6 134.94 32.1" height="94.08071137458319" data-palette-color="#551e19"><path d="M22.25-27.1L14-27.1 14 0 9 0 9-27.1 0.75-27.1 0.75-31.25 22.25-31.25 22.25-27.1ZM27.5 0L27.5-31.25 38.7-31.25Q42.5-31.25 44.9-30.63 47.3-30 48.62-28.3 49.95-26.6 50.45-23.55 50.95-20.5 50.95-15.6L50.95-15.6Q50.95-10.75 50.45-7.68 49.95-4.6 48.62-2.93 47.3-1.25 44.9-0.63 42.5 0 38.7 0L38.7 0 27.5 0ZM41.65-27.1L32.5-27.1 32.5-4.15 41.65-4.15Q43.85-4.15 44.7-4.95 45.55-5.75 45.55-7.8L45.55-7.8 45.55-23.45Q45.55-25.5 44.7-26.3 43.85-27.1 41.65-27.1L41.65-27.1ZM84.19-10.3L76.19-10.3 76.19 0 71.19 0 71.19-31.25 83.44-31.25Q86.74-31.25 88.64-30.25 90.54-29.25 91.37-26.95 92.19-24.65 92.19-20.7L92.19-20.7Q92.19-15.1 90.34-12.7 88.49-10.3 84.19-10.3L84.19-10.3ZM76.19-27.1L76.19-14.25 83.49-14.25Q85.44-14.25 86.19-14.7 86.94-15.15 86.94-16.35L86.94-16.35 86.94-25Q86.94-26.2 86.19-26.65 85.44-27.1 83.49-27.1L83.49-27.1 76.19-27.1ZM105.89 0.5L105.89 0.5Q103.04 0.5 101.14-0.1 99.24-0.7 98.17-2.15 97.09-3.6 96.64-6.13 96.19-8.65 96.19-12.5L96.19-12.5Q96.19-17.45 97.14-20.3 98.09-23.15 100.42-24.33 102.74-25.5 106.74-25.5L106.74-25.5Q110.69-25.5 112.87-24.85 115.04-24.2 115.89-22.58 116.74-20.95 116.74-18L116.74-18Q116.74-15.4 116.22-13.83 115.69-12.25 114.12-11.43 112.54-10.6 109.52-10.33 106.49-10.05 101.44-10.05L101.44-10.05 99.94-10.05 99.94-13.3 108.04-13.3Q110.49-13.3 111.37-13.9 112.24-14.5 112.24-16.2L112.24-16.2 112.24-21.4 105.59-21.4Q103.19-21.4 102.32-20.8 101.44-20.2 101.44-18.5L101.44-18.5 101.44-4Q102.54-3.7 103.79-3.58 105.04-3.45 106.79-3.45L106.79-3.45Q108.79-3.45 110.74-3.73 112.69-4 115.44-4.65L115.44-4.65 116.09-1Q114.24-0.3 111.52 0.1 108.79 0.5 105.89 0.5ZM129.94 0.5L129.94 0.5Q128.09 0.5 127.16-0.43 126.24-1.35 126.24-3.25L126.24-3.25 126.24-30.35 131.24-31.6 131.24-3.7Q131.94-3.65 132.74-3.58 133.54-3.5 134.79-3.45L134.79-3.45 134.49-0.05Q132.94 0.25 131.84 0.38 130.74 0.5 129.94 0.5ZM135.69-21.55L122.74-21.55 122.74-25 135.69-25 135.69-21.55Z" opacity="1" transform="matrix(1,0,0,1,0,0)" fill="#000000" class="wordmark-text-0" data-fill-palette-color="primary" id="text-0"></path></svg></g></svg></g></svg></g></svg></g><g><svg viewBox="0 0 244.43135999999998 164.23343374467427" height="164.23343374467427" width="244.43135999999998"><g><svg xmlns="http://www.w3.org/2000/svg" xmlns:xlink="http://www.w3.org/1999/xlink" version="1.1" x="0" y="0" viewBox="-345.765 275.279 99.42178716439025 66.80149999999998" enable-background="new -346 256 100 100" xml:space="preserve" height="164.23343374467427" width="244.43135999999998" class="icon-icon-0" data-fill-palette-color="accent" id="icon-0"><g fill="#551e19" data-fill-palette-color="accent"><path d="M-251.339 331.136C-252.414 331.047-261.924 329.962-264.485 319.07-265.678 314-265.263 307.109-265.256 306.998-265.227 306.551-265.31 301.812-265.937 299.64-268.858 289.499-284.125 283.769-301.982 287.309-305.304 287.967-308.689 288.692-311.968 289.538-311.606 292.932-311.492 299.464-315.129 303.782-318.206 307.438-324.657 308.546-325.383 308.661A2.15 2.15 0 0 1-327.837 306.875 2.144 2.144 0 0 1-326.053 304.421C-324.514 304.172-320.15 303.08-318.411 301.015-316.248 298.446-315.977 294.421-316.114 291.569-316.206 289.633-316.161 275.279-316.161 275.279L-324.298 281.473A17.2 17.2 0 0 0-330.412 280.361C-332.521 280.361-334.53 280.734-336.359 281.407L-343.527 275.391V286.83C-344.938 288.86-345.765 291.232-345.765 293.782-345.765 299.774-341.271 304.844-335.07 306.57-335.281 308.61-335.053 310.867-334.277 313.387-333.22 316.817-330.35 319.639-326.325 321.736V336.778A5.302 5.302 0 0 0-315.72 336.778V325.148C-310.604 326.045-304.879 326.199-299.102 325.508L-308 332.675A5.303 5.303 0 0 0-301.348 340.934L-285.443 328.122C-285.363 328.059-285.305 327.984-285.231 327.915V336.695A5.302 5.302 0 0 0-274.627 336.695V322.9C-270.609 337.016-258.236 341.541-252.062 341.925-251.946 341.933-251.833 341.937-251.718 341.937-248.907 341.937-246.563 339.76-246.357 336.916-246.146 333.958-248.382 331.379-251.339 331.136" fill="#000000" data-fill-palette-color="accent"></path></g></svg></g></svg></g></svg></g><defs></defs></svg><rect width="395.52" height="98.09933380772016" fill="none" stroke="none" visibility="hidden"></rect></g></svg></g></svg>